<?xml version="1.0" encoding="utf-8"?>
<!-- Generator: Adobe Illustrator 27.2.0, SVG Export Plug-In . SVG Version: 6.00 Build 0)  -->
<svg version="1.1" id="Layer_1" xmlns="http://www.w3.org/2000/svg" xmlns:xlink="http://www.w3.org/1999/xlink" x="0px" y="0px"
	 viewBox="0 0 600 400" style="enable-background:new 0 0 600 400;" xml:space="preserve">
<style type="text/css">
	.st0{fill:#454545;}
	.st1{fill:#0A9BD8;}
	.st2{fill-rule:evenodd;clip-rule:evenodd;fill:#0A9BD8;}
</style>
<g id="XMLID_2_">
	<g>
		<path class="st0" d="M598.2,228.3c1.6,3.4,0.1,8.6-0.7,10.1c-3.7,6.8-14.8,5.1-25.7,5.1c-2.1,0-5.4-0.4-6,0
			c-0.4,0.2-0.6,2.9-0.7,3.8c-1.4,8.8-5.7,15-12.8,18.6c-5,2.5-13,2.2-21.1,2.2c-6.3,0-12.4,0.5-14.1-4.2c-1.9-5.1,1-11.1,4.2-12.8
			c4.3-2.4,14.7-1.3,22-1.3c1.7,0,5.2,0.4,5.8,0c0.7-0.5,0.7-4,0.9-4.9c0.9-4.8,2.8-8.3,5.4-11.6c3.3-4.1,7.4-7.7,14.6-8.5
			c3.3-0.4,9-0.2,13.7-0.2C589.4,224.7,596.1,224,598.2,228.3z"/>
		<path class="st0" d="M506.7,225.8c2,2.6,1.1,7.7,0.7,10.5c-1.5,10.8-2.8,21.1-4.5,31.8c-16.9,0-32.4,0-49.3,0
			c-6.9,0-15.9,1.1-20.8-1.1c-7.2-3.2-9-12.4-7.6-23.1c1.1-8.4,1.3-19.1,9.4-20.1c10.3-1.2,7.1,10.7,6.1,17.5
			c-0.2,1.2-0.3,2.5-0.5,4.3c-0.2,1.1-0.8,3.8-0.5,4.2c0.7,0.8,5,0.2,6.1,0.2c12.9,0,24.5,0,37.4,0c1.5,0,5.6,0.4,6.1,0
			c0.6-0.4,0.7-4.5,0.9-5.6c0.3-2.1,0.7-4.2,0.9-5.6c0.6-3.7,0.7-7.8,2.4-10.7C495.4,224.9,503.1,221.2,506.7,225.8z"/>
		<path class="st1" d="M476.7,131.3v0.3c-8.4,12.8-15.6,26.5-25.1,38.6c-0.2,0.3-0.4,0.5-0.5,0.8c-22.7,0-45.7,0-68.7,0
			c-2.1,0-5-0.4-6,0c-1,0.4-2.1,4.7-2.9,6.5c-6,14.7-12,28-20.2,40.7c-0.4,0.7-0.9,1.6-1,1.6c0,0-32.8-0.1-43.8-0.2
			c10.5-14.6,17.7-31.2,24.2-48.6c-8.1,0-16.3,0-24.4,0c0-13.2,0-26.5,0-39.8c12,0,28.4,0.1,41,0.1c0.2,0,0.4,0,0.5,0
			c-0.1,0.1,0.6,0,0,0c0,0,0.1-0.1,0.3-0.2c0.8-0.3,3.2-5.2,3.8-6.1c3.3-5.8,6.1-9.4,10.1-14.6c0.6-0.7,1.3-1.9,1.8-2.5
			c0.1,0,0.2,0,0.3,0h46.7c-0.6,0.7-1.5,1.5-1.7,1.7c-5.9,6.7-11.3,13.9-15.9,21.5C418.3,131.3,452.8,131.3,476.7,131.3z"/>
		<path class="st0" d="M416.4,205.6c0.4,4.3-1.2,9.5-1.8,14.1c-1.2,8.5-2.8,19.4-4,27.8c-0.7,4.9-0.6,9.5-2,13.7
			c-1.2,3.5-4.9,8.1-10.1,6.7c-7.2-2-4-13.9-2.9-21.1c1-7.2,3.1-21.2,4.1-28.7c0.7-5.1,0.9-10.6,2.5-13.9c1-2,3.3-4.5,6.5-5.1
			C413,198.4,416,201.4,416.4,205.6z"/>
		<path class="st0" d="M376.2,226.3c6.2,3.3,10.4,11.3,8.7,21c-1.6,9.2-9.2,19.7-19.3,20.8c-7,0.8-16.3,0-24.8,0c-5.8,0-12,0-18.6,0
			c-1.9,0-5.8-0.3-6.1,0c-0.5,0.4-0.7,3.9-0.9,5.1c-0.7,4.8-0.9,11.3-2.7,14.8c-1.2,2.3-4,5.6-8.3,4.9c-8.3-1.4-4.9-13.9-3.8-21.3
			c2.2-14.2,4-27.8,6.1-42.7c0.2-1.3,0.2-3.8,0.5-4.1c0.1-0.1,0-0.2,0.2-0.2c10.1-0.3,12.7-0.2,23.4-0.2c5.3,0,14.2,0.1,19.3,0.1
			C357.5,224.4,371.4,223.8,376.2,226.3z M369.6,242.6c-13.2,0-29.4,0-43.5,0c-2.2,0-6.4-0.3-6.5,0.5c-0.4,2.2-0.8,5.3-0.9,6.9
			c13.2,0,29.4,0,43.6,0c1.6,0,5.8,0.4,6.3,0c0.3-0.2,0.5-3.1,0.5-3.6C369.3,244.6,369.4,243.5,369.6,242.6z"/>
		<path class="st1" d="M349.8,131.4C350.4,131.5,349.7,131.6,349.8,131.4L349.8,131.4z"/>
		<path class="st1" d="M266,163.1c16.1,3.2,23.7,12.9,22.4,32c-0.7,10.8-6.9,16-15.7,19.3c8.6,4.2,14.9,8,15.7,19.2
			c0.5,6.6,0,15.7,0,23.3c0,2.4,0.5,5.9,0,7.8c-0.4,1.3-3.1,3-4.5,3.4c-4.4,1.4-13.6,0.5-14.8-3.3c-0.7-2.4,0-6.8,0-9.9
			c0-3.2,0-6.8,0-9.8c0-6.4,0.6-12.5-2.2-17.5c-2.4-4.3-7.1-7.1-13.7-7.6c-5-0.4-10.6,0-16.5,0c-1.6,0-5.1-0.3-5.4,0
			c-0.5,0.4-0.2,4.1-0.2,5.4c0,9.6,0,18.4,0,28c0,3.3,0.8,8.5,0,11.2c-1,3.2-7.6,4.6-12.7,4c-2.8-0.4-6.3-2.2-6.9-4.2
			c-0.8-2.7,0-9.5,0-12.8c0-27.5,0-55.4,0-83.5c0-2.6-0.5-5.7,1.3-6.3c1.4-0.5,4.7,0,6.9,0c6.8,0,14.2,0,20.4,0
			C249.5,161.8,258.5,161.6,266,163.1z M266.9,202.3c2.9-4.9,3.4-16.9,0.4-22.8c-4-7.9-15.1-7.1-27.3-7.1c-1.6,0-8.7-0.4-8.8,0.5
			c-0.4,2.7,0,5.9,0,9c0,9,0,18.5,0,27.1C245.3,209.2,261.4,211.4,266.9,202.3z"/>
		<path class="st1" d="M180.7,165.1c0.9,2.4,0.2,7.3,0.2,10.8c0,22.3,0,43.3,0,65.6c0,6,0.4,10.8-1.6,14.5c-8.6,15.5-48.5,16-64.2,6
			c-2.8-1.8-5.7-4.6-6.9-7.8c-1.9-5-0.9-14.7-0.9-21.7c0-19.5,0-36.2,0-56c0-3.8-0.7-8.2,0.2-11c1-3.1,5.3-4.1,9.4-4.2
			c2.2,0,9,1,9.9,4c0.8,2.4,0,7.6,0,11c0,22,0,42.8,0,65.2c0,3.5-0.7,8,0.2,10.7c2,6.2,19.8,5.8,27.3,4.3c3.3-0.6,6.3-1.8,7.2-3.8
			c1.1-2.6,0.4-7.6,0.4-10.7c0-22.8,0-42.9,0-66c0-3.2-0.6-8.2,0.2-10.7C163.9,159.8,178.8,159.7,180.7,165.1z"/>
		<path class="st1" d="M74.1,176.5c2.4,4.9,3.2,14.6,2.4,22.9c-1.1,10.8-10.6,17.4-19.2,20.6c-8.8,3.2-19,3.3-31.6,3.3
			c-1.5,0-4.5-0.3-4.9,0c-0.7,0.6-0.2,9.4-0.2,10.3c0,7.5,0,13,0,20.8c0,3.1,0.7,8.2,0,10.3c-0.8,2.6-5.7,4.2-9.6,4.2
			c-3.4,0-8.9-1.3-9.8-4c-0.4-1.3,0-4.4,0-6.5c0-30.2,0-59.4,0-90c0-2.6-0.5-5.6,0.9-6.3c1.7-0.9,8.5-0.2,11-0.2
			C38.5,161.8,65.5,158.8,74.1,176.5z M55.5,204.8c2.7-5.2,2.6-20.3-0.2-25.5c-4-7.5-14.9-6.9-26.4-6.9c-2.4,0-6-0.5-8,0
			c-0.7,0.2-0.4,3.7-0.4,5.4c0,11.9-0.1,23.8,0.2,34.7C36,212.5,50.6,214.3,55.5,204.8z"/>
	</g>
	<g>
	</g>
</g>
<g>
	<path class="st2" d="M510.4,153.9C510.4,153.9,510.4,154,510.4,153.9c0.1,0.2,0,0.4,0,0.5c-0.2,0.3-0.4,0.5-0.9,0.5
		c-0.1,0-0.1-0.1-0.2-0.1c-0.2-0.1-0.3-0.2-0.4-0.4c-0.3-0.8,0.4-1.4,1.1-1.1C510.2,153.5,510.4,153.6,510.4,153.9z"/>
	<path class="st2" d="M510.4,159C510.4,159,510.4,159,510.4,159c0,0.6-0.3,0.9-0.8,0.9c-0.5,0-0.7-0.3-0.8-0.8
		c0-0.6,0.6-0.9,1.2-0.7C510.1,158.5,510.3,158.7,510.4,159z"/>
	<path class="st2" d="M510.4,139c0.1,0.6-0.3,1-0.9,0.9c-0.3-0.1-0.5-0.3-0.6-0.6c0-0.1,0-0.2,0-0.4c0.1-0.3,0.3-0.5,0.6-0.6
		c0.1,0,0.2,0,0.4,0C510.1,138.5,510.3,138.6,510.4,139z"/>
	<path class="st2" d="M510.4,133.9c0.1,0.1,0,0.4,0,0.5c-0.1,0.2-0.2,0.3-0.4,0.4c-0.2,0-0.4,0-0.6,0c-0.3-0.2-0.5-0.5-0.4-1
		c0.2-0.3,0.5-0.5,1-0.4C510.1,133.6,510.3,133.7,510.4,133.9z"/>
	<path class="st2" d="M510.3,149C510.3,149,510.3,149,510.3,149c0,0.6-0.2,0.8-0.8,0.9c-0.4-0.1-0.6-0.3-0.6-0.8
		c0.1-0.4,0.3-0.6,0.8-0.6c0.1,0,0.1,0.1,0.2,0.1C510.1,148.6,510.3,148.7,510.3,149z"/>
	<path class="st2" d="M510.2,143.9c0.1,0.1,0,0.4,0,0.5c-0.1,0.2-0.4,0.4-0.8,0.3c0,0-0.1,0-0.1,0c-0.1-0.1-0.3-0.2-0.4-0.4
		c-0.2-0.5,0.3-1.1,0.9-0.9C510,143.6,510.2,143.7,510.2,143.9z"/>
	<path class="st2" d="M510.2,164C510.2,164,510.2,164.1,510.2,164c0,0.4-0.2,0.7-0.6,0.7c-0.4,0-0.6-0.3-0.6-0.6
		c0-0.4,0.3-0.6,0.6-0.7C509.9,163.5,510.2,163.7,510.2,164z"/>
	<path class="st2" d="M510.2,168.9c0.1,0.1,0,0.4,0,0.5c-0.2,0.2-0.4,0.4-0.8,0.3c0,0-0.1,0-0.1,0c-0.1-0.1-0.3-0.2-0.4-0.4
		c-0.2-0.5,0.3-1.1,0.9-0.9C510,168.6,510.2,168.7,510.2,168.9z"/>
	<path class="st2" d="M505.6,139C505.6,139,505.6,139,505.6,139c0,0.7-0.3,1.1-0.9,1.1c-0.8,0-1.3-1-0.7-1.6
		c0.2-0.1,0.4-0.3,0.7-0.3c0.3,0,0.5,0.1,0.7,0.2C505.4,138.6,505.6,138.7,505.6,139z"/>
	<path class="st2" d="M505.6,154C505.6,154,505.6,154,505.6,154c0,0.7-0.3,1.1-0.9,1.1c-0.8,0-1.3-1-0.7-1.6
		c0.2-0.1,0.4-0.3,0.7-0.3c0.3,0,0.5,0.1,0.7,0.2C505.4,153.5,505.6,153.7,505.6,154z"/>
	<path class="st2" d="M505.6,149C505.6,149,505.6,149,505.6,149c0,0.6-0.2,0.8-0.6,1c-0.6,0.2-1-0.1-1.2-0.5c-0.2-0.6,0.1-1,0.5-1.2
		c0.2-0.1,0.5-0.1,0.7,0C505.3,148.4,505.5,148.6,505.6,149z"/>
	<path class="st2" d="M505.5,159C505.5,159,505.5,159,505.5,159c0,0.5-0.4,1-0.9,1c-0.2,0-0.5-0.1-0.6-0.3c-0.1-0.2-0.3-0.4-0.3-0.6
		c0-0.3,0.1-0.5,0.3-0.7c0.2-0.1,0.4-0.2,0.6-0.3c0.3,0,0.5,0.1,0.7,0.3C505.4,158.6,505.5,158.7,505.5,159z"/>
	<path class="st2" d="M505.5,163.9c0.1,0.2,0,0.4,0,0.6c-0.2,0.3-0.5,0.6-1,0.5c-0.5-0.2-0.8-0.4-0.7-1.1c0.1-0.4,0.4-0.6,0.7-0.7
		c0.2,0,0.4,0,0.6,0.1c0.1,0.1,0.2,0.1,0.3,0.2C505.3,163.6,505.5,163.7,505.5,163.9C505.5,163.9,505.5,163.9,505.5,163.9z"/>
	<path class="st2" d="M505.5,144C505.5,144,505.5,144,505.5,144c0,0.7-0.3,1-0.9,1c-0.5-0.1-0.8-0.3-0.9-0.8c0-0.6,0.3-0.9,0.8-0.9
		c0.3,0,0.4,0.1,0.6,0.2C505.3,143.6,505.5,143.7,505.5,144z"/>
	<path class="st2" d="M505.4,133.9c0.1,0.1,0,0.4,0,0.5c-0.1,0.2-0.3,0.4-0.6,0.5c-0.1,0-0.3,0-0.4,0c-0.4-0.2-0.6-0.4-0.6-1
		c0.2-0.4,0.4-0.6,1-0.6c0,0,0.1,0,0.1,0C505.2,133.5,505.4,133.6,505.4,133.9z"/>
	<path class="st2" d="M505.3,168.9c0.1,0.1,0,0.4,0,0.5c-0.1,0.2-0.3,0.4-0.6,0.5c-0.1,0-0.3,0-0.4,0c-0.4-0.2-0.6-0.4-0.6-1
		c0.2-0.4,0.4-0.6,1-0.6c0,0,0.1,0,0.1,0C505.1,168.5,505.3,168.6,505.3,168.9z"/>
	<path class="st2" d="M500.8,149C500.8,148.9,500.8,149,500.8,149c0,0.5-0.1,0.7-0.3,1c-0.2,0.2-0.5,0.3-0.9,0.4
		c-0.4,0-0.6-0.2-0.8-0.3c-0.2-0.2-0.3-0.5-0.4-0.8c0.1-0.7,0.5-1.1,1.2-1.2c0.4,0,0.6,0.2,0.9,0.4
		C500.6,148.5,500.8,148.6,500.8,149z"/>
	<path class="st2" d="M500.7,138.9c0.1,0.2,0,0.5,0,0.7c-0.2,0.5-0.8,0.8-1.5,0.6c-0.5-0.2-0.8-0.8-0.6-1.5c0.1-0.2,0.3-0.4,0.6-0.6
		c0.2-0.1,0.6-0.1,0.9,0C500.4,138.3,500.7,138.5,500.7,138.9z"/>
	<path class="st2" d="M500.6,163.9C500.7,163.9,500.7,163.9,500.6,163.9c0,0.1,0,0.2,0,0.4c-0.1,0.5-0.4,0.8-0.9,0.9
		c-0.1,0-0.2,0-0.3,0c-0.5-0.1-0.8-0.4-0.9-0.9c0-0.7,0.4-1.1,0.9-1.2c0.4,0,0.5,0.1,0.8,0.2c0.1,0.1,0.2,0.2,0.3,0.3
		C500.5,163.6,500.6,163.7,500.6,163.9z"/>
	<path class="st2" d="M500.7,143.9C500.7,143.9,500.7,143.9,500.7,143.9c0,0.2,0,0.4,0,0.6c-0.2,0.5-0.6,0.8-1.4,0.6
		c-0.3-0.1-0.5-0.4-0.6-0.6c0-0.2,0-0.5,0-0.7c0.1-0.3,0.4-0.5,0.6-0.6c0.2,0,0.5,0,0.7,0c0.1,0.1,0.3,0.2,0.4,0.2
		C500.5,143.5,500.6,143.6,500.7,143.9C500.7,143.8,500.7,143.8,500.7,143.9z"/>
	<path class="st2" d="M500.6,153.9C500.7,153.9,500.7,153.9,500.6,153.9c0,0.2,0,0.4,0,0.6c-0.2,0.5-0.6,0.8-1.4,0.6
		c-0.3-0.1-0.5-0.4-0.6-0.6c0-0.2,0-0.5,0-0.7c0.1-0.3,0.4-0.5,0.6-0.6c0.2,0,0.5,0,0.7,0c0.1,0.1,0.3,0.2,0.4,0.2
		C500.5,153.5,500.6,153.6,500.6,153.9C500.6,153.8,500.6,153.8,500.6,153.9z"/>
	<path class="st2" d="M500.6,134c0.1,0.2,0,0.4,0,0.5c-0.2,0.4-0.7,0.8-1.3,0.6c-0.2-0.1-0.4-0.3-0.6-0.6c-0.2-0.6,0.1-1.1,0.6-1.3
		c0.2-0.1,0.5-0.1,0.8,0C500.3,133.4,500.6,133.5,500.6,134z"/>
	<path class="st2" d="M500.6,168.8C500.6,168.8,500.6,168.9,500.6,168.8c0,0.3,0,0.5,0,0.6c-0.1,0.2-0.3,0.4-0.5,0.5
		c-0.2,0.1-0.6,0.1-0.8,0c-0.2-0.1-0.4-0.3-0.5-0.5c-0.3-0.9,0.4-1.6,1.4-1.4C500.3,168.3,500.5,168.5,500.6,168.8z"/>
	<path class="st2" d="M500.6,158.8C500.6,158.8,500.6,158.8,500.6,158.8c0,0.2,0,0.3,0,0.5c0,0-0.1,0.1-0.1,0.2
		c-0.2,0.3-0.4,0.5-0.7,0.6c-0.2,0-0.3,0-0.5,0c-0.2-0.1-0.3-0.2-0.5-0.3c-0.1-0.1-0.2-0.2-0.2-0.4c0,0,0-0.1,0-0.1
		c-0.1-0.4,0.1-0.7,0.3-0.9c0.1-0.1,0.3-0.2,0.5-0.3c0.4,0,0.7,0.1,0.9,0.2C500.4,158.5,500.5,158.6,500.6,158.8
		C500.6,158.8,500.6,158.8,500.6,158.8z"/>
	<path class="st2" d="M495.9,154C495.9,154,495.9,154,495.9,154c0,0.3,0,0.5-0.1,0.7c-0.2,0.4-0.6,0.7-1.1,0.7
		c-0.8-0.1-1.2-0.5-1.3-1.3c0.1-0.8,0.5-1.2,1.3-1.3c0.2,0,0.4,0.1,0.6,0.1C495.5,153.1,495.8,153.4,495.9,154
		C495.9,153.9,495.9,154,495.9,154z"/>
	<path class="st2" d="M495.9,158.9C495.9,158.8,495.9,158.9,495.9,158.9c0.1,0.6-0.1,0.8-0.3,1.1c-0.3,0.2-0.6,0.4-1.1,0.4
		c-0.3,0-0.6-0.2-0.8-0.4c-0.2-0.2-0.4-0.6-0.4-1.1c0-0.3,0.2-0.6,0.4-0.8c0.3-0.2,0.6-0.4,1.1-0.4c0.3,0,0.6,0.2,0.8,0.4
		C495.7,158.3,495.8,158.5,495.9,158.9C495.9,158.8,495.9,158.8,495.9,158.9z"/>
	<path class="st2" d="M495.9,163.9C495.9,163.8,495.9,163.9,495.9,163.9c0.1,0.6-0.1,0.8-0.3,1.1c-0.3,0.2-0.6,0.4-1.1,0.4
		c-0.3,0-0.6-0.2-0.8-0.4c-0.2-0.2-0.4-0.6-0.4-1.1c0-0.3,0.2-0.6,0.4-0.8c0.3-0.2,0.6-0.4,1.1-0.4c0.3,0,0.6,0.2,0.8,0.4
		C495.7,163.3,495.8,163.5,495.9,163.9C495.9,163.8,495.9,163.8,495.9,163.9z"/>
	<path class="st2" d="M495.9,148.9C495.9,148.9,495.9,149,495.9,148.9c0,0.3,0,0.4-0.1,0.6c-0.2,0.4-0.5,0.7-1.1,0.8
		c-0.2,0-0.4-0.1-0.5-0.1c-0.3-0.2-0.5-0.4-0.7-0.7c-0.3-0.9,0.3-1.7,1.2-1.8c0.2,0,0.4,0.1,0.5,0.1
		C495.5,148.1,495.8,148.4,495.9,148.9C495.9,148.9,495.9,148.9,495.9,148.9z"/>
	<path class="st2" d="M495.9,133.9C495.9,133.9,495.9,133.9,495.9,133.9c0.1,0.5-0.1,0.7-0.3,1c-0.2,0.2-0.5,0.4-0.8,0.4
		c-0.1,0-0.1,0-0.2,0c-0.7-0.1-1.1-0.5-1.2-1.2c0-0.8,0.5-1.3,1.3-1.3c0.5,0,0.8,0.3,1.1,0.7C495.8,133.7,495.9,133.7,495.9,133.9
		C495.9,133.9,495.9,133.9,495.9,133.9z"/>
	<path class="st2" d="M495.8,169C495.8,169,495.8,169,495.8,169c0,0.2,0,0.4-0.1,0.5c0,0-0.1,0.1-0.1,0.1c-0.1,0.2-0.3,0.4-0.5,0.5
		c-0.4,0.2-0.8,0.2-1.2,0c-0.2-0.1-0.4-0.3-0.5-0.5c-0.2-0.3-0.2-0.8,0-1.1c0.2-0.5,1-0.9,1.7-0.6c0.2,0.1,0.4,0.3,0.5,0.5
		C495.7,168.6,495.8,168.8,495.8,169z"/>
	<path class="st2" d="M495.8,143.9C495.9,143.9,495.9,143.9,495.8,143.9c0.1,0.9-0.4,1.2-1,1.4c-0.1,0-0.2,0-0.3,0
		c-0.7-0.1-1.1-0.5-1.1-1.4c0.1-0.6,0.5-0.9,1-1.1c0.5,0,0.8,0.1,1,0.3C495.6,143.4,495.8,143.6,495.8,143.9
		C495.8,143.8,495.8,143.9,495.8,143.9z"/>
	<path class="st2" d="M495.8,139C495.8,139,495.8,139,495.8,139c0,0.5-0.1,0.7-0.3,1c-0.2,0.2-0.5,0.3-0.9,0.4
		c-0.4,0-0.6-0.2-0.8-0.3c-0.2-0.2-0.3-0.5-0.4-0.8c0.1-0.7,0.5-1.1,1.2-1.2c0.4,0,0.6,0.2,0.9,0.4
		C495.6,138.5,495.8,138.7,495.8,139z"/>
	<path class="st2" d="M491.1,148.8C491.2,148.8,491.2,148.8,491.1,148.8c0,0.2,0,0.4,0,0.5c-0.2,0.7-0.6,1.1-1.3,1.2
		c-0.1,0-0.3,0-0.4,0c-0.8-0.2-1.3-0.7-1.3-1.7c0.1-0.7,0.6-1.1,1.3-1.3c0.8-0.1,1.2,0.3,1.5,0.7C491,148.4,491.1,148.5,491.1,148.8
		C491.1,148.8,491.1,148.8,491.1,148.8z"/>
	<path class="st2" d="M491.1,169C491.1,169,491.1,169,491.1,169c0,0.2,0,0.4-0.1,0.6c0,0-0.1,0.1-0.1,0.1c-0.2,0.3-0.4,0.5-0.6,0.6
		c-0.4,0.2-1,0.2-1.4,0c-0.3-0.2-0.5-0.4-0.6-0.7c-0.5-1.3,0.7-2.5,2-2C490.7,168,491,168.3,491.1,169
		C491.1,169,491.1,169,491.1,169z"/>
	<path class="st2" d="M491.1,133.8C491.1,133.8,491.1,133.8,491.1,133.8c0,0.3,0,0.5,0,0.7c0,0.1-0.1,0.1-0.1,0.2
		c-0.1,0.2-0.2,0.4-0.4,0.6c0,0-0.1,0-0.1,0c0,0-0.1,0.1-0.1,0.1c0,0-0.2,0.1-0.3,0.1c-0.3,0.1-0.7,0-1.1-0.1
		c-0.3-0.2-0.5-0.4-0.7-0.7c0-0.1-0.1-0.2-0.1-0.4c0-0.2,0-0.4,0-0.6c0-0.1,0.1-0.2,0.1-0.4c0.2-0.3,0.4-0.5,0.7-0.7
		c0.1,0,0.2-0.1,0.4-0.1c0.2,0,0.4,0,0.6,0c0.1,0,0.2,0.1,0.4,0.1C490.7,133,491,133.3,491.1,133.8
		C491.1,133.8,491.1,133.8,491.1,133.8z"/>
	<path class="st2" d="M491.1,143.8C491.1,143.8,491.1,143.8,491.1,143.8c0,0.2,0.1,0.4,0,0.6c0,0.1-0.1,0.2-0.1,0.4
		c-0.2,0.3-0.4,0.5-0.7,0.7c-0.1,0-0.2,0.1-0.4,0.1c-0.2,0-0.4,0-0.6,0c-0.1,0-0.2-0.1-0.4-0.1c-0.3-0.2-0.5-0.4-0.7-0.7
		c-0.1-0.2-0.2-0.6-0.1-0.9c0-0.1,0.1-0.2,0.1-0.4c0.2-0.3,0.5-0.6,0.9-0.8c0,0,0.1,0,0.1,0c0.2,0,0.4,0,0.6,0
		c0.1,0,0.2,0.1,0.4,0.1C490.7,143,491,143.3,491.1,143.8C491.1,143.7,491.1,143.8,491.1,143.8z"/>
	<path class="st2" d="M491.1,138.8C491.1,138.8,491.1,138.8,491.1,138.8c0.1,0.3,0,0.6-0.1,0.8c-0.2,0.4-0.6,0.7-1.1,0.9
		c-1,0.1-1.5-0.4-1.7-1.2c-0.1-1,0.4-1.5,1.2-1.7c0.6-0.1,1,0.1,1.3,0.4C490.9,138.3,491,138.5,491.1,138.8
		C491.1,138.8,491.1,138.8,491.1,138.8z"/>
	<path class="st2" d="M491,163.8C491,163.8,491,163.8,491,163.8c0.1,0.4,0,0.7-0.1,0.9c-0.2,0.4-0.6,0.7-1.1,0.8c-0.1,0-0.3,0-0.4,0
		c-0.7-0.1-1.1-0.6-1.3-1.2c0-1,0.5-1.5,1.2-1.6c0.8,0,1.2,0.3,1.5,0.7C490.9,163.5,491,163.6,491,163.8
		C491,163.8,491,163.8,491,163.8z"/>
	<path class="st2" d="M491,153.9C491,153.9,491,153.9,491,153.9c0.1,0.4-0.1,0.7-0.2,1c-0.1,0.2-0.3,0.3-0.4,0.4
		c-0.2,0.1-0.4,0.2-0.6,0.2c-0.4,0-0.7-0.1-0.9-0.2c-0.2-0.1-0.3-0.3-0.4-0.4c-0.1-0.2-0.2-0.4-0.2-0.6c0-0.4,0.1-0.7,0.2-0.9
		c0.1-0.2,0.3-0.3,0.4-0.4c0.2-0.1,0.4-0.2,0.6-0.2c0.7,0,1,0.3,1.4,0.7C490.9,153.5,491,153.6,491,153.9
		C491,153.8,491,153.9,491,153.9z"/>
	<path class="st2" d="M491,159C491,159,491,159,491,159c0,0.5-0.1,0.8-0.3,1c-0.1,0.1-0.2,0.1-0.3,0.2c-0.2,0.1-0.5,0.2-0.8,0.2
		c-0.3,0-0.6-0.1-0.8-0.2c-0.1-0.1-0.3-0.3-0.4-0.4c-0.1-0.2-0.2-0.5-0.2-0.8c0-0.3,0.1-0.6,0.2-0.8c0.3-0.3,0.6-0.6,1.2-0.6
		c0.5,0,0.8,0.2,1.1,0.5C490.8,158.4,491,158.6,491,159z"/>
	<path class="st2" d="M486.3,148.9C486.3,148.9,486.3,149,486.3,148.9c0,0.6-0.2,1-0.4,1.3c-0.3,0.2-0.6,0.4-1.1,0.5
		c-1-0.1-1.5-0.6-1.6-1.6c0.1-1,0.6-1.5,1.6-1.6c0.5,0,0.9,0.2,1.2,0.5C486,148.2,486.3,148.5,486.3,148.9z"/>
	<path class="st2" d="M486.2,153.9C486.3,153.9,486.3,154,486.2,153.9c0,0.6-0.2,1-0.4,1.3c-0.3,0.2-0.6,0.4-1.1,0.5
		c-1-0.1-1.5-0.6-1.6-1.6c0.1-1,0.6-1.5,1.6-1.6c0.5,0,0.9,0.2,1.2,0.5C486,153.2,486.2,153.5,486.2,153.9z"/>
	<path class="st2" d="M486.2,158.9C486.3,158.9,486.3,158.9,486.2,158.9c0,0.6-0.2,1-0.4,1.3c-0.3,0.2-0.6,0.4-1.1,0.5
		c-1-0.1-1.5-0.6-1.6-1.6c0.1-1,0.6-1.5,1.6-1.6c0.5,0,0.9,0.2,1.2,0.5C486,158.2,486.2,158.5,486.2,158.9z"/>
	<path class="st2" d="M486.2,163.8C486.2,163.8,486.2,163.8,486.2,163.8c0.1,0.7-0.1,1.1-0.4,1.4c-0.2,0.2-0.5,0.3-0.8,0.4
		c0,0-0.2,0-0.1,0c-0.2,0-0.4,0-0.5,0c-0.7-0.2-1.2-0.6-1.3-1.4c-0.1-0.7,0.2-1.1,0.5-1.4c0.3-0.3,0.7-0.5,1.4-0.4
		c0.4,0.1,0.7,0.3,1,0.5C486,163.1,486.2,163.4,486.2,163.8C486.2,163.7,486.2,163.8,486.2,163.8z"/>
	<path class="st2" d="M486.2,168.8C486.2,168.8,486.2,168.8,486.2,168.8c0.1,0.7-0.1,1.1-0.4,1.4c-0.2,0.2-0.5,0.3-0.8,0.4
		c0,0-0.2,0-0.1,0c-0.2,0-0.4,0-0.5,0c-0.7-0.2-1.2-0.6-1.3-1.4c-0.1-0.7,0.2-1.1,0.5-1.4c0.3-0.3,0.7-0.5,1.4-0.4
		c0.4,0.1,0.7,0.3,1,0.5C486,168.1,486.1,168.4,486.2,168.8C486.2,168.7,486.2,168.8,486.2,168.8z"/>
	<path class="st2" d="M486.3,133.8C486.3,133.8,486.3,133.8,486.3,133.8c0,0.2,0,0.4,0,0.5c-0.2,0.7-0.6,1.1-1.3,1.3
		c-0.2,0-0.4,0-0.5,0c-0.7-0.2-1.1-0.6-1.3-1.3c-0.1-1.1,0.5-1.6,1.3-1.9c0.8-0.1,1.3,0.3,1.6,0.7
		C486.1,133.4,486.2,133.5,486.3,133.8C486.3,133.8,486.3,133.8,486.3,133.8z"/>
	<path class="st2" d="M486.2,143.8C486.3,143.8,486.3,143.8,486.2,143.8c0,0.2,0,0.4,0,0.5c-0.2,0.7-0.6,1.2-1.3,1.3
		c-0.2,0-0.4,0-0.5,0c-0.7-0.2-1.2-0.6-1.3-1.3c-0.1-1.1,0.5-1.6,1.3-1.9c0.8-0.1,1.3,0.3,1.6,0.7
		C486.1,143.4,486.2,143.5,486.2,143.8C486.2,143.8,486.2,143.8,486.2,143.8z"/>
	<path class="st2" d="M486.2,138.9C486.2,138.8,486.2,138.9,486.2,138.9c0.1,0.5-0.1,0.8-0.2,1.1c-0.1,0.2-0.3,0.3-0.5,0.5
		c-0.3,0.1-0.5,0.3-0.9,0.2c-0.3,0-0.5-0.1-0.8-0.2c-0.2-0.1-0.3-0.3-0.5-0.5c-0.1-0.3-0.3-0.6-0.2-1c0-0.3,0.2-0.5,0.2-0.7
		c0.1-0.2,0.3-0.3,0.5-0.5c0.3-0.1,0.5-0.3,1-0.2c0.3,0,0.5,0.1,0.7,0.2c0.2,0.1,0.3,0.3,0.5,0.5
		C486.1,138.4,486.2,138.6,486.2,138.9z"/>
	<path class="st2" d="M481.4,148.8C481.5,148.8,481.5,148.8,481.4,148.8c0.1,0.9-0.2,1.3-0.6,1.7c-0.1,0-0.2,0.1-0.3,0.2
		c-0.2,0.1-0.4,0.1-0.6,0.2c-0.1,0-0.3,0-0.4,0c-0.4-0.1-0.7-0.2-1-0.4c-0.3-0.3-0.5-0.6-0.6-1.1c-0.1-0.8,0.3-1.2,0.6-1.6
		c0.4-0.2,0.7-0.5,1.4-0.4c0.4,0.1,0.7,0.2,1,0.4C481.1,148,481.4,148.2,481.4,148.8C481.4,148.7,481.4,148.8,481.4,148.8z"/>
	<path class="st2" d="M481.4,153.7C481.4,153.7,481.4,153.7,481.4,153.7c0,0.2,0,0.4,0,0.6c-0.1,0.4-0.2,0.7-0.4,0.9
		c-0.3,0.3-0.6,0.5-1.1,0.6c-1.2,0-1.8-0.6-2-1.5c0-0.2,0-0.3,0-0.5c0.2-0.8,0.7-1.3,1.5-1.5c0.2,0,0.3,0,0.5,0
		c0.4,0.1,0.7,0.3,1,0.5c0.1,0.1,0.2,0.3,0.3,0.4C481.3,153.3,481.4,153.5,481.4,153.7C481.4,153.7,481.4,153.7,481.4,153.7z"/>
	<path class="st2" d="M481.4,158.9C481.4,158.9,481.4,158.9,481.4,158.9c0,0.6-0.2,1-0.5,1.4c-0.3,0.3-0.7,0.5-1.3,0.5
		c-1.1-0.1-1.6-0.7-1.8-1.7c0.1-1.1,0.7-1.7,1.8-1.8c0.7,0,1.2,0.4,1.5,0.8C481.2,158.3,481.4,158.5,481.4,158.9z"/>
	<path class="st2" d="M481.4,163.8C481.4,163.8,481.4,163.8,481.4,163.8c0.1,0.5-0.1,0.8-0.2,1.1c-0.3,0.5-0.8,0.9-1.6,0.9
		c-0.4,0-0.7-0.2-0.9-0.3c-0.4-0.3-0.7-0.7-0.8-1.4c0-0.5,0.1-0.8,0.3-1.1c0.1-0.2,0.3-0.3,0.5-0.5c0.3-0.1,0.5-0.3,0.9-0.3
		c0.8,0,1.2,0.3,1.6,0.8c0,0.1,0.1,0.1,0.1,0.2C481.3,163.4,481.4,163.5,481.4,163.8C481.4,163.8,481.4,163.8,481.4,163.8z"/>
	<path class="st2" d="M481.4,133.8C481.4,133.8,481.4,133.8,481.4,133.8c0.1,0.4,0,0.7-0.1,1c-0.2,0.4-0.5,0.6-0.8,0.9
		c-0.3,0.1-0.7,0.2-1.1,0.1c-0.1,0-0.3-0.1-0.5-0.1c-0.1,0-0.2-0.1-0.2-0.2c0,0-0.1-0.1-0.1-0.1c-0.1-0.1-0.2-0.2-0.3-0.3
		c0,0,0-0.1-0.1-0.1c0,0-0.1-0.1-0.1-0.1c-0.1-0.2-0.1-0.3-0.1-0.5c0-0.4,0-0.8,0.1-1.1c0.2-0.4,0.5-0.6,0.9-0.8
		c0.2,0,0.3-0.1,0.4-0.1c0.2,0,0.4,0,0.6,0C480.7,132.6,481.2,133,481.4,133.8C481.4,133.7,481.4,133.8,481.4,133.8z"/>
	<path class="st2" d="M481.4,143.9C481.4,143.9,481.4,143.9,481.4,143.9c0,0.6-0.2,1-0.4,1.4c-0.3,0.3-0.7,0.5-1.2,0.5
		c-1.1-0.1-1.6-0.7-1.7-1.7c0.1-1,0.7-1.6,1.7-1.7c0.8,0,1.3,0.4,1.6,1C481.3,143.5,481.4,143.6,481.4,143.9
		C481.4,143.8,481.4,143.9,481.4,143.9z"/>
	<path class="st2" d="M481.3,168.8C481.3,168.8,481.3,168.8,481.3,168.8c0,0.2,0,0.4,0,0.5c-0.2,0.8-0.7,1.3-1.5,1.4
		c-1.2,0-1.7-0.6-1.9-1.5c0-1.2,0.6-1.7,1.5-1.9c0.1,0,0.3,0,0.4,0c0.4,0.1,0.8,0.3,1,0.5c0.1,0.1,0.2,0.2,0.3,0.4
		C481.2,168.4,481.3,168.5,481.3,168.8C481.3,168.7,481.3,168.7,481.3,168.8z"/>
	<path class="st2" d="M481.3,138.8C481.3,138.8,481.3,138.8,481.3,138.8c0.1,0.7-0.1,1.1-0.4,1.4c-0.2,0.2-0.5,0.3-0.8,0.4
		c0,0-0.2,0-0.1,0c-0.2,0-0.4,0-0.5,0c-0.7-0.2-1.2-0.6-1.3-1.4c-0.1-0.7,0.2-1.1,0.5-1.4c0.3-0.3,0.7-0.5,1.4-0.4
		c0.4,0.1,0.7,0.3,1,0.5C481,138.1,481.2,138.4,481.3,138.8C481.3,138.7,481.3,138.8,481.3,138.8z"/>
	<path class="st2" d="M476.5,148.8C476.6,148.8,476.6,148.8,476.5,148.8c0.1,0.3,0,0.6-0.1,0.8c-0.3,0.7-0.8,1.2-1.8,1.3
		c-0.8,0-1.3-0.4-1.7-0.9c-0.1-0.3-0.3-0.6-0.3-1c0-0.4,0.1-0.7,0.3-1c0.1-0.3,0.4-0.5,0.6-0.6c0.3-0.1,0.6-0.3,1-0.3
		c0.9,0,1.3,0.5,1.7,1C476.4,148.3,476.5,148.5,476.5,148.8C476.5,148.8,476.5,148.8,476.5,148.8z"/>
	<path class="st2" d="M476.5,153.9C476.6,153.9,476.6,153.9,476.5,153.9c0,0.7-0.2,1.1-0.5,1.4c-0.3,0.3-0.7,0.5-1.3,0.6
		c-0.6,0-1-0.3-1.4-0.6c-0.3-0.3-0.5-0.7-0.6-1.4c0-0.6,0.3-1,0.6-1.4c0.3-0.3,0.7-0.5,1.3-0.6c0.6,0,1,0.3,1.4,0.6
		C476.3,153,476.5,153.3,476.5,153.9z"/>
	<path class="st2" d="M476.5,158.9C476.5,158.9,476.5,158.9,476.5,158.9c0,0.7-0.2,1.1-0.5,1.4c-0.3,0.3-0.7,0.5-1.3,0.6
		c-0.6,0-1-0.3-1.4-0.6c-0.3-0.3-0.5-0.8-0.6-1.4c0-0.6,0.3-1,0.6-1.4c0.3-0.3,0.7-0.5,1.3-0.6c0.6,0,1,0.3,1.4,0.6
		C476.3,158,476.5,158.3,476.5,158.9z"/>
	<path class="st2" d="M476.6,133.9C476.6,133.9,476.6,133.9,476.6,133.9c0.1,0.5-0.1,0.8-0.2,1.1c-0.1,0.1-0.2,0.3-0.4,0.4
		c-0.1,0.2-0.3,0.2-0.4,0.4c-0.3,0.1-0.5,0.2-0.9,0.2c-0.3,0-0.6-0.1-0.9-0.2c-0.1-0.1-0.3-0.2-0.4-0.4c-0.2-0.1-0.2-0.3-0.4-0.4
		c-0.1-0.3-0.2-0.5-0.2-0.9c0-0.3,0.1-0.6,0.2-0.8c0.1-0.1,0.2-0.3,0.4-0.4c0.1-0.2,0.3-0.2,0.4-0.4c0.3-0.1,0.5-0.2,0.9-0.2
		c0.3,0,0.6,0.1,0.9,0.2c0.1,0.1,0.3,0.2,0.4,0.4c0.2,0.1,0.2,0.3,0.4,0.4C476.4,133.4,476.6,133.6,476.6,133.9z"/>
	<path class="st2" d="M476.5,143.8C476.5,143.8,476.5,143.8,476.5,143.8c0.1,0.8-0.2,1.2-0.5,1.6c-0.3,0.3-0.6,0.4-1.1,0.5
		c-0.1,0-0.3,0-0.4,0c-0.2,0-0.4-0.1-0.6-0.2c-0.2-0.1-0.4-0.2-0.5-0.3c-0.1-0.1-0.2-0.3-0.3-0.5c-0.1-0.2-0.2-0.4-0.2-0.6
		c0-0.1,0-0.3,0-0.4c0.2-0.9,0.7-1.5,1.6-1.6c0.1,0,0.3,0,0.4,0c0.7,0.1,1.1,0.4,1.4,0.9C476.3,143.3,476.5,143.4,476.5,143.8
		C476.5,143.7,476.5,143.8,476.5,143.8z"/>
	<path class="st2" d="M476.5,163.7C476.5,163.7,476.5,163.8,476.5,163.7c0.1,0.8-0.2,1.2-0.5,1.6c-0.3,0.3-0.6,0.4-1.1,0.5
		c-0.1,0-0.3,0-0.4,0c-0.2,0-0.4-0.1-0.6-0.2c-0.2-0.1-0.4-0.2-0.5-0.3c-0.1-0.1-0.2-0.3-0.3-0.5c-0.1-0.2-0.2-0.4-0.2-0.6
		c0-0.1,0-0.3,0-0.4c0.2-0.9,0.7-1.5,1.6-1.6c0.1,0,0.3,0,0.4,0c0.6,0.1,1.1,0.4,1.4,0.9C476.3,163.2,476.4,163.4,476.5,163.7
		C476.5,163.7,476.5,163.7,476.5,163.7z"/>
	<path class="st2" d="M476.4,168.7C476.5,168.7,476.5,168.7,476.4,168.7c0,0.2,0,0.4,0,0.6c0,0.1-0.1,0.3-0.1,0.4
		c-0.3,0.6-0.7,1-1.4,1.1c-1.3,0.1-1.9-0.6-2.2-1.5c-0.1-1.1,0.4-1.7,1.1-2.1c0.3-0.1,0.6-0.1,1.1-0.1c0.1,0,0.3,0.1,0.4,0.1
		C475.9,167.6,476.3,168,476.4,168.7C476.4,168.7,476.4,168.7,476.4,168.7z"/>
	<path class="st2" d="M476.5,138.7C476.5,138.7,476.5,138.7,476.5,138.7c0.1,1-0.3,1.5-0.8,1.9c-0.2,0.1-0.4,0.2-0.7,0.3
		c-0.7,0-1.2-0.1-1.6-0.5c0,0-0.1-0.1-0.1-0.1c0-0.1,0-0.1-0.1-0.2c0,0-0.1-0.1-0.1-0.1c-0.1-0.1-0.1-0.2-0.1-0.4
		c0-0.2-0.1-0.5-0.1-0.8c0.2-0.8,0.7-1.3,1.5-1.5c0.6-0.1,1,0.1,1.3,0.3c0.2,0.2,0.4,0.3,0.5,0.5
		C476.3,138.2,476.5,138.4,476.5,138.7C476.5,138.7,476.5,138.7,476.5,138.7z"/>
	<path class="st2" d="M471.7,143.8C471.7,143.8,471.7,143.8,471.7,143.8c0.1,0.5-0.1,0.8-0.2,1.1c-0.1,0.2-0.2,0.4-0.4,0.5
		c-0.1,0.2-0.3,0.3-0.4,0.4c-0.3,0.1-0.6,0.2-1,0.2c-0.4,0-0.7-0.1-1-0.2c-0.1-0.1-0.3-0.2-0.4-0.4c-0.1-0.1-0.2-0.3-0.4-0.4
		c-0.1-0.3-0.2-0.6-0.2-1c0-0.4,0.1-0.7,0.2-1c0.1-0.1,0.2-0.3,0.3-0.4c0.1-0.1,0.2-0.2,0.4-0.3c0.3-0.1,0.6-0.3,1-0.3
		c0.3,0,0.6,0.1,0.8,0.1c0.2,0.1,0.5,0.3,0.6,0.4c0.1,0.1,0.2,0.3,0.4,0.4C471.5,143.3,471.7,143.5,471.7,143.8z"/>
	<path class="st2" d="M471.7,148.7C471.7,148.7,471.7,148.7,471.7,148.7c0,0.2,0,0.4,0,0.6c-0.2,0.9-0.8,1.5-1.7,1.7
		c-0.6,0-1-0.1-1.3-0.3c-0.1,0-0.1-0.1-0.2-0.1c-0.1-0.1-0.2-0.2-0.3-0.3c-0.1-0.2-0.3-0.4-0.4-0.6c-0.1-0.3-0.1-0.6-0.1-1
		c0.2-0.9,0.8-1.5,1.7-1.7c0.2,0,0.4,0,0.6,0c0.7,0.2,1.1,0.5,1.5,1.1C471.5,148.3,471.6,148.4,471.7,148.7
		C471.7,148.7,471.7,148.7,471.7,148.7z"/>
	<path class="st2" d="M471.6,153.8C471.6,153.8,471.6,153.8,471.6,153.8c0.1,0.5,0,0.8-0.1,1.1c-0.2,0.3-0.4,0.6-0.7,0.8
		c-0.3,0.2-0.7,0.3-1.2,0.3c-1.1-0.1-1.7-0.8-1.8-1.8c0-0.4,0.1-0.8,0.3-1.1c0,0,0-0.1,0.1-0.1c0,0,0.1,0,0.1-0.1c0,0,0-0.1,0-0.1
		c0,0,0.1-0.1,0.1-0.1c0.2-0.2,0.2-0.2,0.4-0.3c0.2-0.1,0.6-0.3,1.1-0.3c0.7,0.1,1.2,0.4,1.5,0.9c0,0.1,0.1,0.1,0.1,0.2
		C471.5,153.3,471.6,153.5,471.6,153.8C471.6,153.7,471.6,153.7,471.6,153.8z"/>
	<path class="st2" d="M471.6,158.9C471.6,158.8,471.6,158.9,471.6,158.9c0,0.9-0.4,1.4-0.8,1.8c-0.3,0.2-0.6,0.3-1.1,0.3
		c-1.2-0.1-1.8-0.8-2-1.9c0.1-1.2,0.8-1.9,1.9-2c0.9,0,1.4,0.5,1.8,1.1C471.5,158.4,471.6,158.6,471.6,158.9z"/>
	<path class="st2" d="M471.6,133.7C471.6,133.7,471.6,133.7,471.6,133.7c0,0.3,0,0.5,0,0.7c-0.2,0.8-0.7,1.3-1.6,1.5
		c-1.3,0.1-1.9-0.6-2.2-1.5c0,0,0-0.1,0-0.1c-0.1-1.2,0.6-2,1.5-2.2c0.2,0,0.5,0,0.8,0c0,0,0.1,0,0.1,0c0.6,0.1,0.9,0.5,1.2,0.9
		C471.5,133.2,471.6,133.4,471.6,133.7C471.6,133.7,471.6,133.7,471.6,133.7z"/>
	<path class="st2" d="M471.6,138.8C471.6,138.8,471.6,138.8,471.6,138.8c0.1,0.4,0,0.6-0.1,0.8c-0.3,0.7-0.8,1.2-1.8,1.3
		c-0.8,0-1.3-0.4-1.7-0.9c-0.1-0.3-0.3-0.6-0.3-1c0-0.4,0.1-0.7,0.3-1c0.1-0.3,0.4-0.4,0.6-0.6c0.3-0.1,0.6-0.3,1-0.3
		c0.9,0,1.3,0.5,1.7,1C471.5,138.3,471.6,138.5,471.6,138.8C471.6,138.8,471.6,138.8,471.6,138.8z"/>
	<path class="st2" d="M471.5,168.8C471.5,168.8,471.6,168.8,471.5,168.8c0.1,0.3,0,0.6-0.1,0.8c-0.3,0.7-0.8,1.2-1.8,1.3
		c-0.8,0-1.3-0.4-1.7-0.9c-0.1-0.3-0.3-0.6-0.3-1c0-0.4,0.1-0.7,0.3-1c0.1-0.3,0.4-0.5,0.6-0.6c0.3-0.1,0.6-0.3,1-0.3
		c0.9,0,1.3,0.4,1.7,1C471.4,168.3,471.5,168.5,471.5,168.8C471.5,168.8,471.5,168.8,471.5,168.8z"/>
	<path class="st2" d="M471.5,163.9C471.5,163.8,471.5,163.9,471.5,163.9c0,0.3,0,0.4,0,0.6c-0.3,0.8-0.8,1.3-1.8,1.4
		c-0.2,0-0.4,0-0.6-0.1c-0.1,0-0.1-0.1-0.2-0.1c-0.1,0-0.2-0.1-0.2-0.1c0,0-0.1-0.1-0.1-0.1c-0.1-0.1-0.2-0.2-0.3-0.3
		c0,0,0-0.1-0.1-0.1c-0.2-0.2-0.3-0.6-0.4-1.1c0-0.8,0.4-1.2,0.8-1.6c0.3-0.2,0.6-0.3,1.1-0.4c0.5,0,0.8,0.2,1.1,0.4
		C471.1,162.8,471.5,163.2,471.5,163.9z"/>
	<path class="st2" d="M466.7,133.9C466.8,133.9,466.8,133.9,466.7,133.9c0,0.4-0.1,0.7-0.1,0.9c-0.1,0.2-0.3,0.4-0.4,0.6
		c-0.2,0.1-0.4,0.3-0.6,0.4c-0.2,0.1-0.5,0.2-0.8,0.2c-1.2-0.1-1.9-0.8-2-2c0.1-1.2,0.8-1.9,2-2c0.3,0,0.6,0.1,0.9,0.2
		c0.2,0.1,0.4,0.3,0.6,0.4C466.4,132.9,466.7,133.3,466.7,133.9C466.7,133.9,466.7,133.9,466.7,133.9z"/>
	<path class="st2" d="M466.7,143.9C466.7,143.9,466.7,143.9,466.7,143.9c0,0.4-0.1,0.7-0.1,0.9c-0.1,0.2-0.3,0.4-0.4,0.6
		c-0.2,0.1-0.4,0.3-0.6,0.4c-0.2,0.1-0.5,0.2-0.8,0.2c-1.2-0.1-1.9-0.8-2-2c0.1-1.2,0.8-1.9,2-2c0.3,0,0.6,0.1,0.9,0.2
		c0.2,0.1,0.4,0.3,0.6,0.4C466.4,142.9,466.7,143.3,466.7,143.9C466.7,143.9,466.7,143.9,466.7,143.9z"/>
	<path class="st2" d="M466.7,153.9C466.7,153.9,466.7,153.9,466.7,153.9c0,0.4-0.1,0.7-0.1,0.9c-0.1,0.2-0.3,0.4-0.4,0.6
		c-0.2,0.1-0.4,0.3-0.6,0.4c-0.2,0.1-0.5,0.2-0.8,0.2c-1.2-0.1-1.9-0.8-2-2c0.1-1.2,0.8-1.9,2-2c0.3,0,0.6,0.1,0.9,0.2
		c0.2,0.1,0.4,0.3,0.6,0.4C466.4,152.9,466.7,153.2,466.7,153.9C466.7,153.8,466.7,153.8,466.7,153.9z"/>
	<path class="st2" d="M466.7,148.7C466.7,148.7,466.7,148.8,466.7,148.7c0.1,0.8-0.2,1.3-0.5,1.7c-0.3,0.3-0.7,0.5-1.2,0.6
		c-0.8,0.1-1.3-0.2-1.7-0.6c-0.3-0.3-0.5-0.7-0.6-1.2c-0.1-0.8,0.2-1.3,0.6-1.7c0.4-0.3,0.8-0.6,1.6-0.6c0.5,0.1,0.9,0.3,1.2,0.6
		C466.4,147.9,466.6,148.2,466.7,148.7C466.7,148.7,466.7,148.7,466.7,148.7z"/>
	<path class="st2" d="M466.7,138.7C466.7,138.7,466.7,138.7,466.7,138.7c0.1,0.8-0.2,1.3-0.5,1.7c-0.3,0.3-0.7,0.5-1.1,0.6
		c-0.2,0-0.3,0-0.5,0c-1-0.2-1.5-0.8-1.7-1.7c0-0.5,0-0.8,0.2-1.2c0.1-0.1,0.1-0.2,0.2-0.3c0.1-0.1,0.1-0.2,0.3-0.3
		c0.1-0.1,0.3-0.2,0.5-0.3c0.1-0.1,0.3-0.1,0.4-0.1c0.2,0,0.3,0,0.5,0c0.7,0.1,1.1,0.5,1.4,0.9C466.5,138.2,466.6,138.4,466.7,138.7
		C466.7,138.7,466.7,138.7,466.7,138.7z"/>
	<path class="st2" d="M466.6,158.7C466.6,158.7,466.6,158.7,466.6,158.7c0.1,0.5,0,0.8-0.1,1.1c-0.3,0.6-0.8,1-1.5,1.1
		c-0.2,0-0.4,0-0.6,0c-0.2-0.1-0.3-0.1-0.5-0.1c-0.4-0.2-0.7-0.6-1-1c0-0.2-0.1-0.3-0.1-0.5c0-0.2,0-0.4,0-0.6
		c0.1-0.7,0.5-1.1,1.1-1.4c0.3-0.1,0.8-0.2,1.2-0.2c0.2,0,0.4,0.1,0.6,0.2C466,157.5,466.5,157.9,466.6,158.7
		C466.6,158.6,466.6,158.6,466.6,158.7z"/>
	<path class="st2" d="M466.6,163.7C466.6,163.7,466.6,163.7,466.6,163.7c0.1,0.5,0,0.8-0.1,1.1c-0.2,0.4-0.5,0.7-0.9,0.9
		c-0.3,0.1-0.7,0.2-1.2,0.2c-0.2-0.1-0.3-0.1-0.5-0.1c-0.4-0.2-0.7-0.6-1-1c0-0.2-0.1-0.3-0.1-0.5c0-0.2,0-0.4,0-0.6
		c0.1-0.7,0.5-1.1,1.1-1.4c0.2-0.1,0.4-0.1,0.6-0.2c1.1-0.1,1.7,0.4,2.1,1.1C466.5,163.3,466.6,163.4,466.6,163.7
		C466.6,163.6,466.6,163.6,466.6,163.7z"/>
	<path class="st2" d="M466.6,168.7C466.6,168.7,466.6,168.7,466.6,168.7c0,0.2,0,0.4,0,0.6c-0.2,0.9-0.8,1.5-1.7,1.6
		c-0.2,0-0.3,0-0.5,0c-1-0.2-1.5-0.7-1.7-1.7c-0.1-1.3,0.7-2,1.7-2.2c1-0.1,1.5,0.4,1.9,0.9C466.4,168.2,466.5,168.3,466.6,168.7
		C466.6,168.6,466.6,168.6,466.6,168.7z"/>
	<path class="st2" d="M461.7,143.8C461.8,143.8,461.8,143.8,461.7,143.8c0.1,0.6-0.1,1-0.3,1.4c-0.4,0.4-0.8,0.8-1.6,0.9
		c-0.5,0-0.9-0.1-1.2-0.3c-0.1-0.1-0.2-0.2-0.4-0.3c-0.1-0.1-0.2-0.2-0.3-0.3c0,0,0,0,0-0.1c0,0,0,0,0,0c-0.1-0.3-0.2-0.6-0.3-0.9
		c0-0.6,0.2-1,0.4-1.3c0.4-0.5,0.9-0.9,1.8-0.9c0.8,0.1,1.2,0.4,1.6,0.9C461.5,143.1,461.7,143.3,461.7,143.8
		C461.7,143.7,461.7,143.7,461.7,143.8z"/>
	<path class="st2" d="M461.7,148.8C461.7,148.8,461.7,148.8,461.7,148.8c0.1,0.6-0.1,1-0.3,1.4c-0.4,0.4-0.8,0.8-1.6,0.9
		c-0.5,0-0.9-0.1-1.2-0.3c-0.1-0.1-0.2-0.2-0.4-0.3c-0.1-0.1-0.2-0.2-0.3-0.3c0,0,0,0,0-0.1c0,0,0,0,0,0c-0.1-0.3-0.2-0.6-0.3-0.9
		c0-0.6,0.2-1,0.4-1.3c0.4-0.5,0.9-0.9,1.8-0.9c0.8,0.1,1.2,0.4,1.6,0.9C461.5,148.1,461.7,148.3,461.7,148.8
		C461.7,148.7,461.7,148.7,461.7,148.8z"/>
	<path class="st2" d="M461.7,153.7C461.7,153.7,461.7,153.7,461.7,153.7c0.1,0.6-0.1,1-0.3,1.4c-0.4,0.4-0.8,0.8-1.6,0.9
		c-0.5,0-0.9-0.1-1.2-0.3c-0.1-0.1-0.2-0.2-0.4-0.3c-0.1-0.1-0.2-0.2-0.3-0.3c0,0,0,0,0-0.1c0,0,0,0,0,0c-0.1-0.3-0.2-0.6-0.3-0.9
		c0-0.6,0.2-1,0.4-1.3c0.4-0.5,0.9-0.9,1.8-0.9c0.8,0.1,1.2,0.4,1.6,0.9C461.5,153.1,461.7,153.3,461.7,153.7
		C461.7,153.7,461.7,153.7,461.7,153.7z"/>
	<path class="st2" d="M461.7,158.7C461.7,158.7,461.7,158.7,461.7,158.7c0,0.2,0,0.4,0,0.6c-0.2,1-0.8,1.6-1.8,1.8
		c-0.2,0-0.3,0-0.5,0c-1-0.2-1.6-0.8-1.8-1.8c0-0.2,0-0.3,0-0.5c0.2-1,0.8-1.6,1.8-1.8c0.2,0,0.3,0,0.5,0
		C460.9,157.1,461.5,157.7,461.7,158.7C461.7,158.6,461.7,158.7,461.7,158.7z"/>
	<path class="st2" d="M461.7,163.7C461.7,163.7,461.7,163.7,461.7,163.7c0,0.2,0,0.4,0,0.6c-0.2,1-0.8,1.6-1.8,1.8
		c-0.2,0-0.3,0-0.5,0c-1-0.2-1.6-0.8-1.8-1.8c0-0.2,0-0.3,0-0.5c0.2-1,0.8-1.6,1.8-1.8c0.2,0,0.3,0,0.5,0
		C460.9,162.1,461.5,162.7,461.7,163.7C461.7,163.6,461.7,163.7,461.7,163.7z"/>
	<path class="st2" d="M461.7,133.8C461.8,133.8,461.8,133.8,461.7,133.8c0.1,1.1-0.4,1.6-1,2c-0.3,0.1-0.6,0.2-0.9,0.2
		c-1.2,0-2-0.8-2.1-2c0-0.7,0.4-1.3,0.8-1.6c0.3-0.2,0.7-0.4,1.2-0.4c0.7,0,1.1,0.3,1.5,0.7C461.5,133,461.7,133.3,461.7,133.8
		C461.7,133.8,461.7,133.8,461.7,133.8z"/>
	<path class="st2" d="M461.7,138.8C461.7,138.8,461.7,138.8,461.7,138.8c0,1.1-0.4,1.6-1,2c-0.3,0.1-0.6,0.2-0.9,0.2
		c-1.2,0-2-0.8-2.1-2c0-0.7,0.4-1.3,0.8-1.6c0.3-0.2,0.7-0.4,1.2-0.4c0.7,0,1.1,0.3,1.5,0.7C461.4,137.9,461.7,138.2,461.7,138.8
		C461.7,138.8,461.7,138.8,461.7,138.8z"/>
	<path class="st2" d="M461.6,168.8C461.7,168.8,461.7,168.8,461.6,168.8c0,0.4-0.1,0.7-0.1,0.9c-0.1,0.2-0.3,0.4-0.4,0.6
		c-0.2,0.1-0.4,0.3-0.6,0.4c-0.2,0.1-0.5,0.2-0.8,0.2c-1.2-0.1-1.9-0.8-2-2c0.1-1.2,0.8-1.9,2-2c0.3,0,0.6,0.1,0.9,0.2
		c0.2,0.1,0.4,0.3,0.6,0.4C461.3,167.9,461.6,168.2,461.6,168.8C461.6,168.8,461.6,168.8,461.6,168.8z"/>
	<path class="st2" d="M456.8,133.7C456.8,133.7,456.8,133.8,456.8,133.7c0.1,0.8-0.2,1.3-0.6,1.7c-0.4,0.3-0.8,0.6-1.4,0.6
		c-0.1,0-0.1,0-0.2,0c-0.6,0-1-0.3-1.4-0.6c-0.3-0.4-0.6-0.9-0.6-1.6c0.2-1.2,0.8-1.8,2-2c1.1,0,1.6,0.5,2,1.2
		C456.7,133.3,456.8,133.4,456.8,133.7C456.8,133.7,456.8,133.7,456.8,133.7z"/>
	<path class="st2" d="M456.8,143.6C456.8,143.6,456.8,143.6,456.8,143.6c0,0.3,0,0.5,0,0.7c-0.2,0.9-0.8,1.5-1.7,1.7
		c-0.3,0-0.6,0-0.8,0c-0.9-0.2-1.5-0.8-1.7-1.7c0-0.5,0-0.9,0.2-1.3c0.3-0.6,0.8-1,1.6-1.2c0.2,0,0.5,0,0.7,0
		C456,142.1,456.6,142.7,456.8,143.6C456.8,143.6,456.8,143.6,456.8,143.6z"/>
	<path class="st2" d="M456.8,148.8C456.8,148.7,456.8,148.8,456.8,148.8c0.1,0.8-0.2,1.3-0.6,1.7c-0.4,0.3-0.8,0.6-1.4,0.6
		c-0.1,0-0.1,0-0.2,0c-0.6,0-1-0.3-1.4-0.6c-0.3-0.4-0.6-0.9-0.6-1.6c0.2-1.2,0.8-1.8,2-2c1.1,0,1.6,0.5,2,1.2
		C456.7,148.3,456.8,148.4,456.8,148.8C456.8,148.7,456.8,148.7,456.8,148.8z"/>
	<path class="st2" d="M456.8,153.8C456.8,153.8,456.8,153.8,456.8,153.8c0,0.5-0.1,0.9-0.2,1.2c-0.4,0.6-0.9,1-1.8,1.1
		c-0.4,0-0.7-0.1-0.9-0.2c-0.1,0-0.1-0.1-0.2-0.1c-0.2-0.1-0.4-0.3-0.5-0.5c-0.1-0.1-0.1-0.1-0.1-0.3c0,0-0.1-0.1-0.1-0.1
		c-0.1-0.2-0.1-0.5-0.1-0.8c0-0.4,0.1-0.7,0.2-0.9c0.1-0.1,0.1-0.1,0.1-0.2c0.1-0.2,0.3-0.4,0.5-0.5c0.1-0.1,0.1-0.1,0.3-0.1
		c0,0,0.1-0.1,0.1-0.1c0.2-0.1,0.5-0.1,0.8-0.1c0.9,0,1.4,0.5,1.8,1.1C456.6,153.2,456.8,153.4,456.8,153.8z"/>
	<path class="st2" d="M456.8,158.7C456.8,158.7,456.8,158.7,456.8,158.7c0.1,0.8-0.2,1.3-0.6,1.7c-0.4,0.3-0.8,0.6-1.4,0.6
		c-0.1,0-0.1,0-0.2,0c-0.6,0-1-0.3-1.4-0.6c-0.3-0.4-0.6-0.9-0.6-1.6c0.2-1.2,0.8-1.8,2-2c1.1,0,1.6,0.5,2,1.2
		C456.6,158.2,456.7,158.4,456.8,158.7C456.8,158.7,456.8,158.7,456.8,158.7z"/>
	<path class="st2" d="M456.8,138.7C456.8,138.7,456.8,138.7,456.8,138.7c0,0.4,0,0.7,0,0.9c-0.3,0.8-0.8,1.3-1.7,1.5
		c-0.2,0-0.4,0-0.6,0c-0.9-0.2-1.5-0.8-1.7-1.7c0-0.3,0-0.6,0.1-0.9c0-0.1,0.1-0.2,0.1-0.4c0.1-0.2,0.3-0.5,0.5-0.6
		c0,0,0.1-0.1,0.1-0.1c0,0,0,0,0.1,0c0,0,0-0.1,0-0.1c0.4-0.2,0.8-0.4,1.4-0.3c0.2,0.1,0.4,0.1,0.6,0.2c0.3,0.2,0.6,0.4,0.8,0.7
		C456.6,138.1,456.7,138.3,456.8,138.7C456.8,138.6,456.8,138.6,456.8,138.7z"/>
	<path class="st2" d="M456.7,163.7C456.7,163.7,456.7,163.7,456.7,163.7c0,0.2,0,0.4,0,0.6c-0.2,1-0.8,1.6-1.8,1.8
		c-0.2,0-0.3,0-0.5,0c-1-0.2-1.6-0.8-1.8-1.8c0-0.2,0-0.3,0-0.5c0.2-1,0.8-1.6,1.8-1.8c0.2,0,0.3,0,0.5,0
		C455.9,162.1,456.5,162.6,456.7,163.7C456.7,163.6,456.7,163.6,456.7,163.7z"/>
	<path class="st2" d="M456.7,168.7C456.7,168.7,456.7,168.7,456.7,168.7c0.1,0.6-0.1,1-0.3,1.4c-0.4,0.4-0.8,0.8-1.6,0.9
		c-0.5,0-0.9-0.1-1.2-0.3c-0.1-0.1-0.2-0.2-0.4-0.3c-0.1-0.1-0.2-0.2-0.3-0.3c0,0,0,0,0-0.1c0,0,0,0,0,0c-0.1-0.3-0.2-0.6-0.3-0.9
		c0-0.6,0.2-1,0.4-1.3c0.4-0.5,0.9-0.9,1.8-0.9c0.8,0.1,1.2,0.4,1.6,0.9C456.5,168,456.6,168.3,456.7,168.7
		C456.7,168.7,456.7,168.7,456.7,168.7z"/>
	<path class="st2" d="M451.8,138.7C451.9,138.7,451.9,138.7,451.8,138.7c0.1,0.5-0.1,0.9-0.2,1.2c-0.4,0.6-0.9,1-1.8,1.1
		c-0.1,0-0.2,0-0.2,0c-0.4,0-0.7-0.2-1-0.3c0,0-0.1,0-0.1-0.1c-0.1-0.1-0.2-0.2-0.4-0.4c0,0-0.1-0.1-0.1-0.1
		c-0.2-0.3-0.5-0.8-0.4-1.4c0.1-1.2,0.8-1.9,2-2c0.1,0,0.1,0,0.2,0c0.9,0.1,1.4,0.5,1.8,1.1C451.7,138.2,451.8,138.4,451.8,138.7
		C451.8,138.7,451.8,138.7,451.8,138.7z"/>
	<path class="st2" d="M451.8,163.8C451.8,163.8,451.8,163.8,451.8,163.8c0,0.8-0.3,1.3-0.6,1.7c-0.4,0.3-0.8,0.6-1.4,0.6
		c-0.7,0-1.1-0.3-1.5-0.6c-0.3-0.4-0.6-0.8-0.6-1.5c0-0.5,0.2-0.9,0.4-1.2c0.3-0.5,0.9-0.9,1.7-0.9c0.7,0,1.2,0.3,1.6,0.7
		C451.5,162.8,451.8,163.2,451.8,163.8z"/>
	<path class="st2" d="M451.8,133.6C451.8,133.6,451.8,133.6,451.8,133.6c0,0.3,0,0.5,0,0.7c-0.2,0.9-0.8,1.5-1.7,1.7
		c-0.3,0-0.6,0-0.8,0c-0.9-0.2-1.5-0.8-1.7-1.7c0-0.5,0-0.9,0.2-1.3c0.3-0.6,0.8-1,1.6-1.2c0.2,0,0.5,0,0.7,0
		C451,132.1,451.6,132.6,451.8,133.6C451.8,133.6,451.8,133.6,451.8,133.6z"/>
	<path class="st2" d="M451.8,143.8C451.8,143.8,451.8,143.8,451.8,143.8c0,0.5-0.1,0.9-0.2,1.2c-0.4,0.6-0.9,1-1.8,1.1
		c-0.4,0-0.7-0.1-0.9-0.2c-0.1,0-0.1-0.1-0.2-0.1c-0.2-0.1-0.4-0.3-0.5-0.5c-0.1-0.1-0.1-0.1-0.1-0.3c0,0-0.1-0.1-0.1-0.1
		c-0.1-0.2-0.1-0.5-0.1-0.8c0-0.4,0.1-0.7,0.2-0.9c0.1-0.1,0.1-0.1,0.1-0.2c0.1-0.2,0.3-0.4,0.5-0.5c0.1-0.1,0.1-0.1,0.3-0.1
		c0,0,0.1-0.1,0.1-0.1c0.2-0.1,0.5-0.1,0.8-0.1c0.9,0,1.4,0.5,1.8,1.1C451.7,143.2,451.8,143.4,451.8,143.8z"/>
	<path class="st2" d="M451.8,148.6C451.8,148.6,451.8,148.6,451.8,148.6c0,0.3,0,0.5,0,0.7c-0.2,0.9-0.8,1.5-1.7,1.7
		c-0.3,0-0.6,0-0.8,0c-0.9-0.2-1.5-0.8-1.7-1.7c0-0.5,0-0.9,0.2-1.3c0.3-0.6,0.8-1,1.6-1.2c0.2,0,0.5,0,0.7,0
		C451,147.1,451.6,147.6,451.8,148.6C451.8,148.6,451.8,148.6,451.8,148.6z"/>
	<path class="st2" d="M451.8,153.7C451.8,153.7,451.8,153.7,451.8,153.7c0.1,0.8-0.2,1.3-0.6,1.7c-0.4,0.3-0.8,0.6-1.4,0.6
		c-0.1,0-0.1,0-0.2,0c-0.6,0-1-0.3-1.4-0.6c-0.3-0.4-0.6-0.9-0.6-1.6c0.2-1.2,0.8-1.8,2-2c1.1,0,1.6,0.5,2,1.2
		C451.6,153.2,451.7,153.4,451.8,153.7C451.8,153.7,451.8,153.7,451.8,153.7z"/>
	<path class="st2" d="M451.8,158.7C451.8,158.6,451.8,158.7,451.8,158.7c0.1,1.1-0.4,1.6-0.9,2.1c-0.3,0.1-0.5,0.2-0.9,0.3
		c-0.6,0-1-0.1-1.4-0.3c-0.3-0.2-0.5-0.4-0.7-0.7c-0.1-0.2-0.3-0.5-0.3-0.9c-0.1-0.5,0.1-1,0.3-1.4c0.2-0.3,0.4-0.5,0.7-0.7
		c0.4-0.2,0.8-0.3,1.4-0.3c0.3,0.1,0.6,0.2,0.9,0.3c0.3,0.2,0.5,0.4,0.7,0.7C451.6,158.1,451.7,158.3,451.8,158.7
		C451.8,158.6,451.8,158.6,451.8,158.7z"/>
	<path class="st2" d="M451.7,168.8C451.8,168.8,451.8,168.8,451.7,168.8c0,0.5-0.1,0.9-0.2,1.2c-0.4,0.6-0.9,1-1.8,1.1
		c-0.4,0-0.7-0.1-0.9-0.2c-0.1-0.1-0.1-0.1-0.2-0.1c-0.2-0.1-0.4-0.3-0.5-0.5c-0.1-0.1-0.1-0.1-0.1-0.3c0,0-0.1-0.1-0.1-0.1
		c-0.1-0.2-0.1-0.5-0.1-0.8c0-0.4,0.1-0.7,0.2-0.9c0.1-0.1,0.1-0.1,0.1-0.2c0.1-0.2,0.3-0.4,0.5-0.5c0.1-0.1,0.1-0.1,0.3-0.1
		c0,0,0.1-0.1,0.1-0.1c0.2-0.1,0.5-0.1,0.8-0.1c0.9,0,1.4,0.5,1.8,1.1C451.6,168.2,451.7,168.4,451.7,168.8z"/>
	<path class="st2" d="M446.8,133.7C446.9,133.7,446.9,133.7,446.8,133.7c0.1,0.5-0.1,0.9-0.2,1.2c-0.4,0.6-0.9,1-1.8,1.1
		c-0.1,0-0.2,0-0.2,0c-0.4,0-0.7-0.2-1-0.3c0,0-0.1,0-0.1-0.1c-0.1-0.1-0.2-0.2-0.4-0.4c0,0-0.1-0.1-0.1-0.1
		c-0.2-0.3-0.5-0.8-0.4-1.4c0.1-1.2,0.8-1.9,2-2c0.1,0,0.1,0,0.2,0c0.9,0.1,1.4,0.5,1.8,1.1C446.7,133.2,446.8,133.4,446.8,133.7
		C446.8,133.7,446.8,133.7,446.8,133.7z"/>
	<path class="st2" d="M446.8,138.7C446.9,138.7,446.9,138.7,446.8,138.7c0,0.3,0,0.6,0,0.9c-0.1,0.2-0.1,0.3-0.2,0.5
		c-0.1,0.2-0.2,0.3-0.3,0.4c-0.3,0.2-0.6,0.4-0.9,0.6c-0.4,0.1-0.8,0.1-1.2,0c-0.7-0.3-1.2-0.7-1.5-1.5c-0.3-1.4,0.5-2.3,1.5-2.6
		c0.3-0.1,0.8-0.1,1.2,0C446.1,137.2,446.7,137.7,446.8,138.7C446.8,138.6,446.8,138.6,446.8,138.7z"/>
	<path class="st2" d="M446.8,148.7C446.8,148.7,446.8,148.7,446.8,148.7c0.1,0.5-0.1,0.9-0.2,1.2c-0.4,0.6-0.9,1-1.8,1.1
		c-0.1,0-0.2,0-0.2,0c-0.4,0-0.7-0.2-1-0.3c0,0-0.1,0-0.1-0.1c-0.1-0.1-0.2-0.2-0.4-0.4c0,0-0.1-0.1-0.1-0.1
		c-0.2-0.3-0.5-0.8-0.4-1.4c0.1-1.2,0.8-1.9,2-2c0.1,0,0.1,0,0.2,0c0.9,0.1,1.4,0.5,1.8,1.1C446.7,148.2,446.8,148.4,446.8,148.7
		C446.8,148.7,446.8,148.7,446.8,148.7z"/>
	<path class="st2" d="M446.8,153.6C446.8,153.6,446.8,153.7,446.8,153.6c0,0.3,0,0.6,0,0.9c-0.1,0.2-0.1,0.3-0.2,0.5
		c-0.1,0.2-0.2,0.3-0.3,0.4c-0.3,0.2-0.6,0.4-0.9,0.6c-0.3,0.1-0.8,0.1-1.2,0c-0.7-0.3-1.2-0.8-1.5-1.5c-0.3-1.4,0.5-2.3,1.5-2.6
		c0.3-0.1,0.8-0.1,1.2,0C446.1,152.2,446.6,152.7,446.8,153.6C446.8,153.6,446.8,153.6,446.8,153.6z"/>
	<path class="st2" d="M446.8,163.7C446.8,163.7,446.8,163.7,446.8,163.7c0.1,0.5-0.1,0.9-0.2,1.2c-0.4,0.6-0.9,1-1.8,1.1
		c-0.1,0-0.2,0-0.2,0c-0.4,0-0.7-0.2-1-0.3c0,0-0.1,0-0.1-0.1c-0.1-0.1-0.2-0.2-0.4-0.4c0,0-0.1-0.1-0.1-0.1
		c-0.2-0.3-0.5-0.8-0.4-1.4c0.1-1.2,0.8-1.9,2-2c0.1,0,0.1,0,0.2,0c0.9,0.1,1.4,0.5,1.8,1.1C446.6,163.2,446.8,163.4,446.8,163.7
		C446.8,163.7,446.8,163.7,446.8,163.7z"/>
	<path class="st2" d="M446.8,168.8C446.8,168.8,446.8,168.8,446.8,168.8c0,0.8-0.3,1.3-0.6,1.7c-0.4,0.3-0.8,0.6-1.4,0.6
		c-0.7,0-1.1-0.3-1.5-0.6c-0.3-0.4-0.6-0.8-0.6-1.5c0-0.5,0.2-0.9,0.4-1.2c0.3-0.5,0.9-0.9,1.7-0.9c0.7,0,1.2,0.3,1.6,0.7
		C446.5,167.8,446.7,168.1,446.8,168.8z"/>
	<path class="st2" d="M446.8,143.6C446.8,143.6,446.8,143.6,446.8,143.6c0,0.3,0,0.5,0,0.7c-0.2,0.9-0.8,1.5-1.7,1.7
		c-0.3,0-0.6,0-0.8,0c-0.9-0.2-1.5-0.8-1.7-1.7c0-0.5,0-0.9,0.2-1.3c0.3-0.6,0.8-1,1.6-1.2c0.2,0,0.5,0,0.7,0
		C446,142.1,446.6,142.6,446.8,143.6C446.8,143.6,446.8,143.6,446.8,143.6z"/>
	<path class="st2" d="M446.7,158.6C446.8,158.6,446.8,158.7,446.7,158.6c0.1,1.1-0.4,1.6-0.9,2.1c-0.3,0.1-0.5,0.2-0.9,0.3
		c-0.6,0-1-0.1-1.4-0.3c-0.3-0.2-0.5-0.4-0.7-0.7c-0.1-0.2-0.3-0.5-0.3-0.9c-0.1-0.5,0.1-1,0.3-1.4c0.2-0.3,0.4-0.5,0.7-0.7
		c0.4-0.2,0.8-0.3,1.4-0.3c0.3,0.1,0.6,0.2,0.9,0.3c0.3,0.2,0.5,0.4,0.7,0.7C446.6,158.1,446.7,158.3,446.7,158.6
		C446.7,158.6,446.7,158.6,446.7,158.6z"/>
	<path class="st2" d="M441.9,133.6L441.9,133.6c0-0.3-0.1-0.5-0.2-0.7c-0.3-0.5-0.8-0.9-1.5-1.1c-0.2,0-0.5,0-0.7,0
		c-0.4,0.1-0.8,0.3-1.1,0.5v3.1c0.3,0.3,0.6,0.4,1.1,0.5c0.2,0,0.5,0,0.7,0c1-0.2,1.5-0.8,1.8-1.8
		C441.9,134.1,441.9,133.8,441.9,133.6C441.9,133.6,441.9,133.6,441.9,133.6z"/>
	<path class="st2" d="M441.9,138.6L441.9,138.6c0-0.3-0.1-0.5-0.2-0.7c-0.3-0.5-0.8-0.9-1.5-1.1c-0.2,0-0.5,0-0.7,0
		c-0.4,0.1-0.8,0.3-1.1,0.5v3.2c0.3,0.3,0.6,0.4,1.1,0.5c0.2,0,0.5,0,0.7,0c1-0.2,1.5-0.8,1.8-1.8
		C441.9,139.1,441.9,138.8,441.9,138.6C441.9,138.6,441.9,138.6,441.9,138.6z"/>
	<path class="st2" d="M441.8,143.6L441.8,143.6c0-0.3-0.1-0.5-0.2-0.7c-0.3-0.5-0.8-0.9-1.5-1.1c-0.2,0-0.5,0-0.7,0
		c-0.4,0.1-0.8,0.3-1.1,0.5v3.2c0.3,0.2,0.6,0.4,1,0.5c0.2,0,0.5,0,0.7,0c1-0.2,1.5-0.8,1.8-1.8
		C441.9,144.1,441.9,143.9,441.8,143.6C441.9,143.6,441.9,143.6,441.8,143.6z"/>
	<path class="st2" d="M441.8,148.6L441.8,148.6c0-0.3-0.1-0.5-0.2-0.7c-0.3-0.5-0.8-0.9-1.5-1.1l-0.7,0c-0.4,0.1-0.7,0.3-1,0.5v3.2
		c0.3,0.2,0.6,0.4,1,0.5c0.2,0,0.5,0,0.7,0c1-0.2,1.5-0.8,1.8-1.8C441.8,149,441.8,148.8,441.8,148.6
		C441.8,148.6,441.8,148.6,441.8,148.6z"/>
	<path class="st2" d="M441.8,153.7C441.8,153.7,441.8,153.6,441.8,153.7c0-0.3-0.1-0.5-0.2-0.8c-0.4-0.6-0.9-1.1-1.8-1.1
		c-0.1,0-0.1,0-0.2,0c-0.5,0.1-0.9,0.2-1.2,0.5v3.2c0,0,0.1,0.1,0.1,0.1c0,0,0.1,0,0.1,0.1c0.3,0.2,0.6,0.3,1,0.3c0.1,0,0.2,0,0.2,0
		c0.9-0.1,1.4-0.5,1.8-1.1C441.7,154.6,441.8,154.2,441.8,153.7C441.8,153.7,441.8,153.7,441.8,153.7z"/>
	<path class="st2" d="M441.8,158.8c0-0.6-0.3-1-0.6-1.3c-0.4-0.3-0.8-0.6-1.6-0.7c-0.6,0-1,0.2-1.3,0.5v3.2c0.3,0.3,0.8,0.5,1.4,0.5
		c0.6,0,1.1-0.3,1.4-0.6C441.5,160,441.8,159.6,441.8,158.8C441.8,158.8,441.8,158.8,441.8,158.8z"/>
	<path class="st2" d="M441.8,163.6L441.8,163.6c-0.2-1-0.7-1.5-1.5-1.8c-0.3-0.1-0.8-0.1-1.2,0c-0.3,0.1-0.5,0.2-0.7,0.4v3.3
		c0.2,0.2,0.4,0.3,0.7,0.4c0.3,0.1,0.8,0.1,1.2,0c0.4-0.1,0.7-0.3,0.9-0.6c0.1-0.2,0.2-0.3,0.3-0.4c0.1-0.2,0.2-0.3,0.2-0.5
		C441.8,164.3,441.8,164,441.8,163.6C441.8,163.6,441.8,163.6,441.8,163.6z"/>
	<path class="st2" d="M441.8,168.6L441.8,168.6c-0.2-1-0.7-1.5-1.5-1.8c-0.3-0.1-0.8-0.1-1.2,0c-0.3,0.1-0.5,0.2-0.7,0.4v3.3
		c0.2,0.2,0.4,0.3,0.7,0.4c0.3,0.1,0.8,0.1,1.2,0c0.4-0.1,0.7-0.3,0.9-0.6c0.1-0.2,0.2-0.3,0.3-0.4c0.1-0.2,0.2-0.3,0.2-0.5
		C441.8,169.2,441.8,169,441.8,168.6C441.8,168.6,441.8,168.6,441.8,168.6z"/>
</g>
</svg>
